<mxfile host="app.diagrams.net" modified="2023-10-28T17:39:52.174Z" agent="Mozilla/5.0 (Windows NT 10.0; Win64; x64) AppleWebKit/537.36 (KHTML, like Gecko) Chrome/116.0.5845.931 YaBrowser/23.9.3.931 Yowser/2.5 Safari/537.36" etag="-o56BTJ_2dALz99hhVws" version="22.0.8" type="github">
  <diagram id="C5RBs43oDa-KdzZeNtuy" name="Page-1">
    <mxGraphModel dx="1904" dy="807" grid="1" gridSize="10" guides="1" tooltips="1" connect="1" arrows="1" fold="1" page="1" pageScale="1" pageWidth="827" pageHeight="1169" math="0" shadow="0">
      <root>
        <mxCell id="WIyWlLk6GJQsqaUBKTNV-0" />
        <mxCell id="WIyWlLk6GJQsqaUBKTNV-1" parent="WIyWlLk6GJQsqaUBKTNV-0" />
        <mxCell id="WPwLfNeSxrro2Ibn4Lvs-8" value="" style="edgeStyle=orthogonalEdgeStyle;rounded=0;orthogonalLoop=1;jettySize=auto;html=1;" edge="1" parent="WIyWlLk6GJQsqaUBKTNV-1" source="WPwLfNeSxrro2Ibn4Lvs-0" target="WPwLfNeSxrro2Ibn4Lvs-2">
          <mxGeometry relative="1" as="geometry" />
        </mxCell>
        <mxCell id="WPwLfNeSxrro2Ibn4Lvs-0" value="Start" style="ellipse;whiteSpace=wrap;html=1;" vertex="1" parent="WIyWlLk6GJQsqaUBKTNV-1">
          <mxGeometry x="354" y="40" width="120" height="80" as="geometry" />
        </mxCell>
        <mxCell id="WPwLfNeSxrro2Ibn4Lvs-1" value="Finish" style="ellipse;whiteSpace=wrap;html=1;" vertex="1" parent="WIyWlLk6GJQsqaUBKTNV-1">
          <mxGeometry x="354" y="830" width="120" height="80" as="geometry" />
        </mxCell>
        <mxCell id="WPwLfNeSxrro2Ibn4Lvs-9" value="" style="edgeStyle=orthogonalEdgeStyle;rounded=0;orthogonalLoop=1;jettySize=auto;html=1;" edge="1" parent="WIyWlLk6GJQsqaUBKTNV-1" source="WPwLfNeSxrro2Ibn4Lvs-2" target="WPwLfNeSxrro2Ibn4Lvs-4">
          <mxGeometry relative="1" as="geometry" />
        </mxCell>
        <mxCell id="WPwLfNeSxrro2Ibn4Lvs-2" value="array[]&lt;br&gt;min_idx&lt;br&gt;max_idx&lt;br&gt;size" style="rounded=0;whiteSpace=wrap;html=1;" vertex="1" parent="WIyWlLk6GJQsqaUBKTNV-1">
          <mxGeometry x="354" y="160" width="120" height="60" as="geometry" />
        </mxCell>
        <mxCell id="WPwLfNeSxrro2Ibn4Lvs-10" value="" style="edgeStyle=orthogonalEdgeStyle;rounded=0;orthogonalLoop=1;jettySize=auto;html=1;" edge="1" parent="WIyWlLk6GJQsqaUBKTNV-1" source="WPwLfNeSxrro2Ibn4Lvs-4" target="WPwLfNeSxrro2Ibn4Lvs-5">
          <mxGeometry relative="1" as="geometry" />
        </mxCell>
        <mxCell id="WPwLfNeSxrro2Ibn4Lvs-4" value="array[]" style="shape=parallelogram;perimeter=parallelogramPerimeter;whiteSpace=wrap;html=1;fixedSize=1;" vertex="1" parent="WIyWlLk6GJQsqaUBKTNV-1">
          <mxGeometry x="276" y="260" width="276" height="60" as="geometry" />
        </mxCell>
        <mxCell id="WPwLfNeSxrro2Ibn4Lvs-11" value="" style="edgeStyle=orthogonalEdgeStyle;rounded=0;orthogonalLoop=1;jettySize=auto;html=1;" edge="1" parent="WIyWlLk6GJQsqaUBKTNV-1" source="WPwLfNeSxrro2Ibn4Lvs-5" target="WPwLfNeSxrro2Ibn4Lvs-6">
          <mxGeometry relative="1" as="geometry" />
        </mxCell>
        <mxCell id="WPwLfNeSxrro2Ibn4Lvs-5" value="size = length(array[])" style="rounded=0;whiteSpace=wrap;html=1;" vertex="1" parent="WIyWlLk6GJQsqaUBKTNV-1">
          <mxGeometry x="354" y="350" width="120" height="60" as="geometry" />
        </mxCell>
        <mxCell id="WPwLfNeSxrro2Ibn4Lvs-12" value="" style="edgeStyle=orthogonalEdgeStyle;rounded=0;orthogonalLoop=1;jettySize=auto;html=1;" edge="1" parent="WIyWlLk6GJQsqaUBKTNV-1" source="WPwLfNeSxrro2Ibn4Lvs-6" target="WPwLfNeSxrro2Ibn4Lvs-7">
          <mxGeometry relative="1" as="geometry" />
        </mxCell>
        <mxCell id="WPwLfNeSxrro2Ibn4Lvs-22" style="edgeStyle=orthogonalEdgeStyle;rounded=0;orthogonalLoop=1;jettySize=auto;html=1;entryX=0.5;entryY=0;entryDx=0;entryDy=0;exitX=1;exitY=0.5;exitDx=0;exitDy=0;" edge="1" parent="WIyWlLk6GJQsqaUBKTNV-1" source="WPwLfNeSxrro2Ibn4Lvs-6" target="WPwLfNeSxrro2Ibn4Lvs-21">
          <mxGeometry relative="1" as="geometry">
            <Array as="points">
              <mxPoint x="740" y="480" />
              <mxPoint x="740" y="700" />
              <mxPoint x="414" y="700" />
            </Array>
          </mxGeometry>
        </mxCell>
        <mxCell id="WPwLfNeSxrro2Ibn4Lvs-6" value="for (i = 0; i &amp;lt; size - 1; i++)" style="shape=hexagon;perimeter=hexagonPerimeter2;whiteSpace=wrap;html=1;fixedSize=1;" vertex="1" parent="WIyWlLk6GJQsqaUBKTNV-1">
          <mxGeometry x="341" y="440" width="146" height="80" as="geometry" />
        </mxCell>
        <mxCell id="WPwLfNeSxrro2Ibn4Lvs-14" value="" style="edgeStyle=orthogonalEdgeStyle;rounded=0;orthogonalLoop=1;jettySize=auto;html=1;" edge="1" parent="WIyWlLk6GJQsqaUBKTNV-1" source="WPwLfNeSxrro2Ibn4Lvs-7" target="WPwLfNeSxrro2Ibn4Lvs-13">
          <mxGeometry relative="1" as="geometry" />
        </mxCell>
        <mxCell id="WPwLfNeSxrro2Ibn4Lvs-16" value="yes" style="edgeLabel;html=1;align=center;verticalAlign=middle;resizable=0;points=[];" vertex="1" connectable="0" parent="WPwLfNeSxrro2Ibn4Lvs-14">
          <mxGeometry x="-0.2877" y="1" relative="1" as="geometry">
            <mxPoint as="offset" />
          </mxGeometry>
        </mxCell>
        <mxCell id="WPwLfNeSxrro2Ibn4Lvs-17" value="" style="edgeStyle=orthogonalEdgeStyle;rounded=0;orthogonalLoop=1;jettySize=auto;html=1;" edge="1" parent="WIyWlLk6GJQsqaUBKTNV-1" source="WPwLfNeSxrro2Ibn4Lvs-7" target="WPwLfNeSxrro2Ibn4Lvs-15">
          <mxGeometry relative="1" as="geometry" />
        </mxCell>
        <mxCell id="WPwLfNeSxrro2Ibn4Lvs-18" value="no" style="edgeLabel;html=1;align=center;verticalAlign=middle;resizable=0;points=[];" vertex="1" connectable="0" parent="WPwLfNeSxrro2Ibn4Lvs-17">
          <mxGeometry x="-0.0141" relative="1" as="geometry">
            <mxPoint as="offset" />
          </mxGeometry>
        </mxCell>
        <mxCell id="WPwLfNeSxrro2Ibn4Lvs-19" style="edgeStyle=orthogonalEdgeStyle;rounded=0;orthogonalLoop=1;jettySize=auto;html=1;entryX=0;entryY=0.5;entryDx=0;entryDy=0;exitX=0.5;exitY=1;exitDx=0;exitDy=0;" edge="1" parent="WIyWlLk6GJQsqaUBKTNV-1" source="WPwLfNeSxrro2Ibn4Lvs-7" target="WPwLfNeSxrro2Ibn4Lvs-6">
          <mxGeometry relative="1" as="geometry">
            <Array as="points">
              <mxPoint x="414" y="670" />
              <mxPoint x="80" y="670" />
              <mxPoint x="80" y="480" />
            </Array>
          </mxGeometry>
        </mxCell>
        <mxCell id="WPwLfNeSxrro2Ibn4Lvs-7" value="if array[i] &amp;lt; array [i+1]" style="rhombus;whiteSpace=wrap;html=1;" vertex="1" parent="WIyWlLk6GJQsqaUBKTNV-1">
          <mxGeometry x="331" y="550" width="166" height="100" as="geometry" />
        </mxCell>
        <mxCell id="WPwLfNeSxrro2Ibn4Lvs-13" value="min_idx = i" style="rounded=0;whiteSpace=wrap;html=1;" vertex="1" parent="WIyWlLk6GJQsqaUBKTNV-1">
          <mxGeometry x="570" y="570" width="120" height="60" as="geometry" />
        </mxCell>
        <mxCell id="WPwLfNeSxrro2Ibn4Lvs-15" value="max_idx = i+1" style="rounded=0;whiteSpace=wrap;html=1;" vertex="1" parent="WIyWlLk6GJQsqaUBKTNV-1">
          <mxGeometry x="140" y="570" width="120" height="60" as="geometry" />
        </mxCell>
        <mxCell id="WPwLfNeSxrro2Ibn4Lvs-23" value="" style="edgeStyle=orthogonalEdgeStyle;rounded=0;orthogonalLoop=1;jettySize=auto;html=1;" edge="1" parent="WIyWlLk6GJQsqaUBKTNV-1" source="WPwLfNeSxrro2Ibn4Lvs-21" target="WPwLfNeSxrro2Ibn4Lvs-1">
          <mxGeometry relative="1" as="geometry" />
        </mxCell>
        <mxCell id="WPwLfNeSxrro2Ibn4Lvs-21" value="max_idx&lt;br&gt;min_idx" style="shape=document;whiteSpace=wrap;html=1;boundedLbl=1;" vertex="1" parent="WIyWlLk6GJQsqaUBKTNV-1">
          <mxGeometry x="354" y="720" width="120" height="80" as="geometry" />
        </mxCell>
      </root>
    </mxGraphModel>
  </diagram>
</mxfile>
